<svg width="206" height="63" viewBox="0 0 206 63" fill="none" xmlns="http://www.w3.org/2000/svg">
<path d="M204.046 55.1646C204.046 58.4844 201.447 61.1735 198.231 61.1735H7.9083C4.69401 61.1735 2.08496 58.4844 2.08496 55.1646V7.24529C2.08496 3.92704 4.69401 1.22852 7.9083 1.22852H198.229C201.447 1.22852 204.045 3.92704 204.045 7.24529L204.046 55.1646Z" fill="black"/>
<path d="M197.617 1.3012C201.119 1.3012 203.969 4.23495 203.969 7.84031V54.5621C203.969 58.1675 201.119 61.1013 197.617 61.1013H8.5143C5.01212 61.1013 2.16234 58.1675 2.16234 54.5621V7.84031C2.16234 4.23495 5.01212 1.3012 8.5143 1.3012H197.617ZM197.617 0.0533395H8.5143C4.35593 0.0533395 0.950195 3.55942 0.950195 7.84031V54.5621C0.950195 58.843 4.35593 62.3491 8.5143 62.3491H197.617C201.775 62.3491 205.181 58.843 205.181 54.5621V7.84031C205.181 3.55942 201.775 0.0533395 197.617 0.0533395Z" fill="#A6A6A6"/>
<path d="M46.5282 30.8645C46.4843 25.845 50.5205 23.403 50.7051 23.2894C48.4192 19.8584 44.8762 19.3896 43.6311 19.3523C40.6554 19.0299 37.7689 21.1853 36.2531 21.1853C34.707 21.1853 32.3727 19.3834 29.8569 19.4364C26.6194 19.4878 23.5908 21.4174 21.9297 24.4138C18.5016 30.5235 21.0583 39.5018 24.3426 44.4403C25.9856 46.859 27.9053 49.5595 30.4181 49.4645C32.8765 49.3601 33.7947 47.851 36.7614 47.851C39.7008 47.851 40.5631 49.4645 43.1258 49.4037C45.7642 49.3601 47.4253 46.9742 49.0107 44.5338C50.9093 41.7616 51.6717 39.0315 51.702 38.8913C51.64 38.8695 46.5781 36.8807 46.5282 30.8645Z" fill="white"/>
<path d="M41.6871 16.1035C43.0093 14.4013 43.914 12.0855 43.6629 9.73535C41.7492 9.82257 39.3559 11.0981 37.9777 12.7629C36.7584 14.23 35.6691 16.6346 35.9505 18.8959C38.1002 19.061 40.3074 17.7793 41.6871 16.1035Z" fill="white"/>
<path d="M82.1059 49.1174H78.6703L76.7883 43.0296H70.2469L68.4542 49.1174H65.1094L71.5903 28.3916H75.5932L82.1059 49.1174ZM76.221 40.4754L74.5191 35.0635C74.3391 34.5106 74.0017 33.2086 73.504 31.1591H73.4435C73.2453 32.0406 72.9261 33.3426 72.4874 35.0635L70.8157 40.4754H76.221Z" fill="white"/>
<path d="M98.7729 41.4611C98.7729 44.0028 98.1058 46.0118 96.7715 47.4867C95.5764 48.7996 94.0923 49.4552 92.3208 49.4552C90.4086 49.4552 89.0349 48.7482 88.1983 47.3341H88.1378V55.2067H84.9125V39.0923C84.9125 37.4945 84.8716 35.8545 84.793 34.1725H87.6295L87.8095 36.5413H87.87C88.9457 34.7566 90.578 33.8657 92.7686 33.8657C94.4811 33.8657 95.9107 34.5619 97.0544 35.9557C98.2011 37.3512 98.7729 39.1858 98.7729 41.4611ZM95.4871 41.5826C95.4871 40.128 95.1694 38.9288 94.531 37.985C93.8336 37.0008 92.8971 36.5086 91.7232 36.5086C90.9275 36.5086 90.2043 36.7827 89.5584 37.3231C88.9109 37.8682 88.4873 38.58 88.2891 39.4614C88.1892 39.8726 88.1393 40.209 88.1393 40.4737V42.9656C88.1393 44.0526 88.4631 44.9699 89.1106 45.7191C89.758 46.4682 90.5992 46.8419 91.6339 46.8419C92.8487 46.8419 93.7943 46.3591 94.4705 45.3967C95.1482 44.4326 95.4871 43.1618 95.4871 41.5826Z" fill="white"/>
<path d="M115.47 41.4611C115.47 44.0028 114.803 46.0118 113.467 47.4867C112.273 48.7996 110.789 49.4552 109.017 49.4552C107.105 49.4552 105.732 48.7482 104.897 47.3341H104.836V55.2067H101.611V39.0923C101.611 37.4945 101.57 35.8545 101.491 34.1725H104.328L104.508 36.5413H104.568C105.642 34.7566 107.275 33.8657 109.467 33.8657C111.178 33.8657 112.607 34.5619 113.754 35.9557C114.896 37.3512 115.47 39.1858 115.47 41.4611ZM112.184 41.5826C112.184 40.128 111.865 38.9288 111.226 37.985C110.529 37.0008 109.595 36.5086 108.42 36.5086C107.623 36.5086 106.901 36.7827 106.254 37.3231C105.606 37.8682 105.184 38.58 104.986 39.4614C104.887 39.8726 104.836 40.209 104.836 40.4737V42.9656C104.836 44.0526 105.16 44.9699 105.804 45.7191C106.452 46.4666 107.293 46.8419 108.331 46.8419C109.545 46.8419 110.491 46.3591 111.167 45.3967C111.845 44.4326 112.184 43.1618 112.184 41.5826Z" fill="white"/>
<path d="M134.138 43.3052C134.138 45.0682 133.544 46.5025 132.35 47.6098C131.039 48.8199 129.213 49.4242 126.866 49.4242C124.7 49.4242 122.963 48.9944 121.648 48.1331L122.396 45.3656C123.812 46.2471 125.365 46.6894 127.058 46.6894C128.273 46.6894 129.219 46.406 129.898 45.8422C130.574 45.2784 130.911 44.5215 130.911 43.5777C130.911 42.7367 130.633 42.0281 130.075 41.4535C129.52 40.8788 128.592 40.3446 127.297 39.8509C123.772 38.4975 122.012 36.515 122.012 33.9079C122.012 32.2041 122.629 30.8071 123.865 29.72C125.096 28.6314 126.739 28.0879 128.793 28.0879C130.626 28.0879 132.147 28.4165 133.362 29.0722L132.556 31.7789C131.421 31.1435 130.138 30.8258 128.703 30.8258C127.568 30.8258 126.682 31.1139 126.046 31.687C125.509 32.1994 125.24 32.8239 125.24 33.5637C125.24 34.3829 125.547 35.0603 126.164 35.593C126.701 36.0851 127.677 36.6177 129.093 37.1924C130.825 37.9104 132.097 38.7498 132.916 39.7123C133.731 40.6716 134.138 41.8724 134.138 43.3052Z" fill="white"/>
<path d="M144.802 36.6643H141.247V43.9202C141.247 45.7657 141.873 46.6877 143.129 46.6877C143.705 46.6877 144.183 46.6363 144.561 46.5335L144.651 49.0549C144.015 49.2994 143.179 49.4225 142.142 49.4225C140.869 49.4225 139.873 49.0222 139.155 48.2233C138.439 47.4228 138.079 46.0803 138.079 44.1943V36.6612H135.961V34.1693H138.079V31.433L141.247 30.4487V34.1693H144.802V36.6643Z" fill="white"/>
<path d="M160.842 41.5218C160.842 43.8189 160.204 45.7049 158.93 47.1798C157.594 48.6983 155.821 49.4552 153.611 49.4552C151.481 49.4552 149.785 48.7278 148.52 47.2732C147.255 45.8186 146.623 43.9825 146.623 41.7694C146.623 39.4536 147.274 37.5567 148.579 36.0818C149.882 34.6054 151.64 33.8672 153.85 33.8672C155.98 33.8672 157.694 34.5945 158.987 36.0507C160.225 37.4632 160.842 39.2869 160.842 41.5218ZM157.496 41.6292C157.496 40.2509 157.21 39.0689 156.63 38.0831C155.954 36.8901 154.987 36.2952 153.735 36.2952C152.438 36.2952 151.453 36.8916 150.777 38.0831C150.198 39.0704 149.912 40.2712 149.912 41.6915C149.912 43.0698 150.198 44.2519 150.777 45.2362C151.475 46.4291 152.449 47.0241 153.706 47.0241C154.938 47.0241 155.904 46.4167 156.602 45.205C157.196 44.2005 157.496 43.006 157.496 41.6292Z" fill="white"/>
<path d="M171.326 37.0926C171.007 37.0319 170.667 37.0008 170.31 37.0008C169.175 37.0008 168.298 37.4415 167.681 38.3245C167.143 39.1032 166.874 40.0875 166.874 41.2758V49.1173H163.65L163.681 38.879C163.681 37.1565 163.64 35.5882 163.56 34.1741H166.369L166.487 37.0335H166.576C166.917 36.0507 167.454 35.2596 168.189 34.6662C168.907 34.132 169.683 33.8657 170.52 33.8657C170.818 33.8657 171.087 33.8875 171.326 33.9265V37.0926Z" fill="white"/>
<path d="M185.751 40.9381C185.751 41.533 185.713 42.0345 185.633 42.4441H175.957C175.995 43.9205 176.462 45.0496 177.361 45.8283C178.176 46.5244 179.231 46.8733 180.526 46.8733C181.958 46.8733 183.265 46.6381 184.441 46.1662L184.946 48.4712C183.572 49.0879 181.951 49.3947 180.079 49.3947C177.828 49.3947 176.061 48.7126 174.775 47.3498C173.493 45.9871 172.85 44.1572 172.85 41.8616C172.85 39.608 173.447 37.7314 174.644 36.2347C175.896 34.6368 177.589 33.8379 179.719 33.8379C181.812 33.8379 183.395 34.6368 184.471 36.2347C185.323 37.504 185.751 39.0739 185.751 40.9381ZM182.675 40.0768C182.697 39.0925 182.486 38.2422 182.049 37.5242C181.491 36.6007 180.633 36.1397 179.479 36.1397C178.424 36.1397 177.567 36.5898 176.912 37.4931C176.374 38.2111 176.055 39.0723 175.957 40.0753H182.675V40.0768Z" fill="white"/>
<path d="M75.1538 15.6414C75.1538 17.4744 74.6198 18.8543 73.5533 19.7809C72.5654 20.6359 71.1615 21.0642 69.3431 21.0642C68.4414 21.0642 67.6699 21.0237 67.0239 20.9427V10.9271C67.8666 10.787 68.7743 10.7153 69.7546 10.7153C71.4868 10.7153 72.7923 11.1031 73.6728 11.8787C74.6591 12.7555 75.1538 14.0092 75.1538 15.6414ZM73.4822 15.6865C73.4822 14.4982 73.1766 13.5872 72.5654 12.9518C71.9542 12.3179 71.0617 12.0002 69.8862 12.0002C69.387 12.0002 68.9619 12.0344 68.6094 12.1061V19.7202C68.8045 19.7513 69.1615 19.7654 69.6804 19.7654C70.8937 19.7654 71.8302 19.4181 72.4898 18.7235C73.1493 18.0289 73.4822 17.0166 73.4822 15.6865Z" fill="white"/>
<path d="M84.0174 17.2425C84.0174 18.3716 83.7043 19.2967 83.0779 20.0224C82.4214 20.7684 81.5515 21.1406 80.4653 21.1406C79.4184 21.1406 78.5849 20.784 77.9631 20.0676C77.3428 19.3527 77.0327 18.451 77.0327 17.3639C77.0327 16.227 77.3519 15.2942 77.9934 14.57C78.6348 13.8458 79.4971 13.4829 80.5833 13.4829C81.6302 13.4829 82.4713 13.8396 83.1082 14.5544C83.7133 15.249 84.0174 16.1461 84.0174 17.2425ZM82.373 17.2954C82.373 16.6179 82.2308 16.037 81.9479 15.5527C81.6151 14.9671 81.1415 14.6743 80.5258 14.6743C79.8889 14.6743 79.4048 14.9671 79.072 15.5527C78.7876 16.037 78.6469 16.6273 78.6469 17.325C78.6469 18.0025 78.7891 18.5834 79.072 19.0677C79.4154 19.6533 79.8935 19.9461 80.5107 19.9461C81.1158 19.9461 81.5908 19.6486 81.9327 19.0522C82.2262 18.5585 82.373 17.9729 82.373 17.2954Z" fill="white"/>
<path d="M95.9024 13.6323L93.671 20.9739H92.2187L91.2943 17.7859C91.0598 16.9901 90.8692 16.1989 90.721 15.414H90.6922C90.5546 16.2207 90.3639 17.0103 90.1189 17.7859L89.137 20.9739H87.6681L85.5698 13.6323H87.1991L88.0055 17.1224C88.2006 17.9479 88.361 18.7343 88.4896 19.4788H88.5183C88.6363 18.8652 88.8315 18.0834 89.1068 17.138L90.1189 13.6339H91.4108L92.3805 17.0633C92.615 17.8996 92.8056 18.7048 92.9524 19.4803H92.9963C93.1037 18.725 93.2655 17.9198 93.4804 17.0633L94.3457 13.6339H95.9024V13.6323Z" fill="white"/>
<path d="M104.122 20.9738H102.536V16.7688C102.536 15.4731 102.058 14.8252 101.099 14.8252C100.628 14.8252 100.249 15.0027 99.9538 15.3594C99.6618 15.716 99.5135 16.1365 99.5135 16.6177V20.9722H97.9281V15.73C97.9281 15.0853 97.9084 14.386 97.8706 13.6291H99.2639L99.338 14.7769H99.3819C99.5665 14.4203 99.8418 14.1259 100.203 13.8907C100.633 13.6166 101.114 13.478 101.641 13.478C102.306 13.478 102.86 13.6992 103.3 14.143C103.848 14.6866 104.122 15.498 104.122 16.5757V20.9738Z" fill="white"/>
<path d="M108.494 20.9739H106.91V10.2637H108.494V20.9739Z" fill="white"/>
<path d="M117.827 17.2425C117.827 18.3716 117.514 19.2967 116.888 20.0224C116.231 20.7684 115.36 21.1406 114.275 21.1406C113.226 21.1406 112.393 20.784 111.773 20.0676C111.152 19.3527 110.842 18.451 110.842 17.3639C110.842 16.227 111.161 15.2942 111.803 14.57C112.444 13.8458 113.307 13.4829 114.391 13.4829C115.44 13.4829 116.279 13.8396 116.918 14.5544C117.523 15.249 117.827 16.1461 117.827 17.2425ZM116.181 17.2954C116.181 16.6179 116.039 16.037 115.756 15.5527C115.425 14.9671 114.95 14.6743 114.335 14.6743C113.697 14.6743 113.213 14.9671 112.882 15.5527C112.597 16.037 112.456 16.6273 112.456 17.325C112.456 18.0025 112.599 18.5834 112.882 19.0677C113.225 19.6533 113.703 19.9461 114.32 19.9461C114.925 19.9461 115.399 19.6486 115.741 19.0522C116.036 18.5585 116.181 17.9729 116.181 17.2954Z" fill="white"/>
<path d="M125.501 20.974H124.077L123.959 20.1283H123.915C123.428 20.8027 122.734 21.1406 121.832 21.1406C121.159 21.1406 120.614 20.9179 120.204 20.4756C119.832 20.0738 119.646 19.5739 119.646 18.9805C119.646 18.0835 120.009 17.3998 120.74 16.9263C121.469 16.4529 122.495 16.2208 123.815 16.2317V16.0947C123.815 15.1275 123.322 14.6447 122.334 14.6447C121.631 14.6447 121.011 14.8269 120.475 15.1883L120.153 14.1168C120.815 13.6947 121.634 13.4829 122.599 13.4829C124.463 13.4829 125.398 14.4952 125.398 16.5198V19.2235C125.398 19.957 125.433 20.541 125.501 20.974ZM123.855 18.451V17.3188C122.106 17.2876 121.231 17.7813 121.231 18.7983C121.231 19.1814 121.331 19.468 121.536 19.6595C121.74 19.8511 122 19.9461 122.31 19.9461C122.658 19.9461 122.983 19.8324 123.28 19.6066C123.578 19.3792 123.761 19.0911 123.829 18.7376C123.846 18.6581 123.855 18.5616 123.855 18.451Z" fill="white"/>
<path d="M134.509 20.9739H133.102L133.028 19.7949H132.984C132.535 20.692 131.77 21.1405 130.694 21.1405C129.835 21.1405 129.119 20.7932 128.552 20.0986C127.985 19.404 127.702 18.5023 127.702 17.395C127.702 16.2067 128.009 15.2442 128.626 14.5091C129.224 13.8239 129.956 13.4812 130.827 13.4812C131.785 13.4812 132.455 13.813 132.836 14.478H132.866V10.2637H134.453V18.996C134.453 19.7108 134.472 20.3696 134.509 20.9739ZM132.866 17.8778V16.6537C132.866 16.4419 132.851 16.2705 132.823 16.1397C132.733 15.7473 132.541 15.4171 132.249 15.1508C131.954 14.8845 131.599 14.7505 131.189 14.7505C130.597 14.7505 130.134 14.9919 129.794 15.4763C129.457 15.9606 129.286 16.5789 129.286 17.3342C129.286 18.06 129.447 18.6487 129.773 19.1019C130.116 19.5847 130.579 19.8261 131.158 19.8261C131.679 19.8261 132.095 19.6252 132.411 19.2218C132.717 18.8496 132.866 18.4011 132.866 17.8778Z" fill="white"/>
<path d="M148.069 17.2425C148.069 18.3716 147.756 19.2967 147.13 20.0224C146.473 20.7684 145.605 21.1406 144.517 21.1406C143.472 21.1406 142.638 20.784 142.015 20.0676C141.395 19.3527 141.084 18.451 141.084 17.3639C141.084 16.227 141.404 15.2942 142.045 14.57C142.687 13.8458 143.549 13.4829 144.637 13.4829C145.682 13.4829 146.525 13.8396 147.16 14.5544C147.765 15.249 148.069 16.1461 148.069 17.2425ZM146.426 17.2954C146.426 16.6179 146.284 16.037 146.001 15.5527C145.667 14.9671 145.195 14.6743 144.578 14.6743C143.942 14.6743 143.458 14.9671 143.124 15.5527C142.839 16.037 142.699 16.6273 142.699 17.325C142.699 18.0025 142.841 18.5834 143.124 19.0677C143.467 19.6533 143.945 19.9461 144.562 19.9461C145.168 19.9461 145.644 19.6486 145.986 19.0522C146.278 18.5585 146.426 17.9729 146.426 17.2954Z" fill="white"/>
<path d="M156.594 20.9738H155.01V16.7688C155.01 15.4731 154.532 14.8252 153.571 14.8252C153.101 14.8252 152.721 15.0027 152.427 15.3594C152.134 15.716 151.987 16.1365 151.987 16.6177V20.9722H150.4V15.73C150.4 15.0853 150.382 14.386 150.344 13.6291H151.736L151.81 14.7769H151.854C152.04 14.4203 152.315 14.1259 152.675 13.8907C153.107 13.6166 153.586 13.478 154.114 13.478C154.778 13.478 155.332 13.6992 155.772 14.143C156.321 14.6866 156.594 15.498 156.594 16.5757V20.9738Z" fill="white"/>
<path d="M167.264 14.8551H165.518V18.4216C165.518 19.328 165.828 19.7812 166.442 19.7812C166.727 19.7812 166.963 19.7563 167.149 19.7049L167.19 20.943C166.876 21.0645 166.465 21.1252 165.958 21.1252C165.332 21.1252 164.845 20.929 164.492 20.5365C164.138 20.144 163.963 19.4837 163.963 18.5571V14.8551H162.92V13.6326H163.963V12.287L165.516 11.8042V13.631H167.262V14.8551H167.264Z" fill="white"/>
<path d="M175.657 20.9739H174.07V16.8001C174.07 15.4841 173.592 14.8253 172.634 14.8253C171.899 14.8253 171.397 15.2068 171.121 15.97C171.075 16.1304 171.047 16.3266 171.047 16.5571V20.9723H169.463V10.2637H171.047V14.6882H171.078C171.577 13.8831 172.292 13.4812 173.22 13.4812C173.876 13.4812 174.419 13.7024 174.851 14.1463C175.388 14.6991 175.657 15.5214 175.657 16.6085V20.9739Z" fill="white"/>
<path d="M184.314 16.9558C184.314 17.2485 184.293 17.4946 184.255 17.6955H179.501C179.522 18.4213 179.749 18.9741 180.189 19.3573C180.591 19.6999 181.11 19.8712 181.746 19.8712C182.449 19.8712 183.09 19.756 183.668 19.5239L183.916 20.6577C183.24 20.9598 182.445 21.1109 181.523 21.1109C180.419 21.1109 179.549 20.776 178.92 20.1064C178.287 19.4367 177.974 18.5381 177.974 17.4105C177.974 16.3032 178.266 15.3812 178.855 14.6461C179.469 13.8612 180.299 13.4688 181.348 13.4688C182.373 13.4688 183.153 13.8612 183.679 14.6461C184.104 15.2691 184.314 16.04 184.314 16.9558ZM182.802 16.5337C182.814 16.0494 182.709 15.632 182.494 15.28C182.219 14.8268 181.8 14.5994 181.233 14.5994C180.715 14.5994 180.293 14.8206 179.971 15.2644C179.708 15.618 179.552 16.04 179.501 16.5337H182.802Z" fill="white"/>
</svg>
