<svg width="204" height="63" viewBox="0 0 204 63" fill="none" xmlns="http://www.w3.org/2000/svg">
<path d="M196.396 62.3491H7.55371C3.40106 62.3491 0 58.843 0 54.5621V7.84031C0 3.55942 3.40106 0.0533348 7.55371 0.0533348H196.396C200.549 0.0533348 203.95 3.55942 203.95 7.84031V54.5621C203.95 58.843 200.549 62.3491 196.396 62.3491Z" fill="black"/>
<path d="M196.396 1.3012C199.894 1.3012 202.74 4.23494 202.74 7.84031V54.5621C202.74 58.1675 199.894 61.1013 196.396 61.1013H7.55371C4.05634 61.1013 1.21048 58.1675 1.21048 54.5621V7.84031C1.21048 4.23494 4.05634 1.3012 7.55371 1.3012H196.396ZM196.396 0.0533348H7.55371C3.40106 0.0533348 0 3.55942 0 7.84031V54.5621C0 58.843 3.40106 62.3491 7.55371 62.3491H196.396C200.549 62.3491 203.95 58.843 203.95 54.5621V7.84031C203.95 3.55942 200.549 0.0533348 196.396 0.0533348Z" fill="#A6A6A6"/>
<path d="M71.6358 16.0067C71.6358 17.3071 71.2581 18.3486 70.5141 19.1254C69.6586 20.0462 68.5444 20.5095 67.1791 20.5095C65.8742 20.5095 64.76 20.0384 63.846 19.1098C62.9301 18.1676 62.4731 17.0112 62.4731 15.6271C62.4731 14.2429 62.9301 13.0866 63.846 12.1521C64.76 11.2157 65.8742 10.7446 67.1791 10.7446C67.8287 10.7446 68.4481 10.8828 69.0392 11.1398C69.6284 11.3987 70.108 11.7491 70.4555 12.1813L69.6662 13.0029C69.06 12.265 68.2347 11.901 67.1791 11.901C66.2273 11.901 65.4021 12.2436 64.7015 12.9347C64.0084 13.6278 63.661 14.5252 63.661 15.6271C63.661 16.7289 64.0084 17.6342 64.7015 18.3272C65.4021 19.0105 66.2273 19.3609 67.1791 19.3609C68.1894 19.3609 69.0392 19.0105 69.7096 18.3194C70.1515 17.8619 70.4027 17.2312 70.4687 16.4252H67.1791V15.3H71.5678C71.6207 15.5434 71.6358 15.7789 71.6358 16.0067Z" fill="white" stroke="white" stroke-width="0.16" stroke-miterlimit="10"/>
<path d="M78.5981 12.1056H74.4756V15.0647H78.1921V16.1899H74.4756V19.1489H78.5981V20.2956H73.3086V10.959H78.5981V12.1056Z" fill="white" stroke="white" stroke-width="0.16" stroke-miterlimit="10"/>
<path d="M83.5121 20.2956H82.345V12.1056H79.8164V10.959H86.0425V12.1056H83.5121V20.2956Z" fill="white" stroke="white" stroke-width="0.16" stroke-miterlimit="10"/>
<path d="M90.5483 20.2956V10.959H91.7135V20.2956H90.5483Z" fill="white" stroke="white" stroke-width="0.16" stroke-miterlimit="10"/>
<path d="M96.8783 20.2956H95.7207V12.1056H93.1826V10.959H99.4163V12.1056H96.8783V20.2956Z" fill="white" stroke="white" stroke-width="0.16" stroke-miterlimit="10"/>
<path d="M111.204 19.0947C110.311 20.0389 109.204 20.51 107.884 20.51C106.557 20.51 105.45 20.0389 104.557 19.0947C103.665 18.1525 103.222 16.9961 103.222 15.6275C103.222 14.259 103.665 13.1026 104.557 12.1604C105.45 11.2162 106.557 10.7451 107.884 10.7451C109.197 10.7451 110.303 11.2162 111.197 12.1682C112.095 13.1182 112.539 14.2668 112.539 15.6275C112.539 16.9961 112.095 18.1525 111.204 19.0947ZM105.42 18.3121C106.092 19.011 106.91 19.3614 107.884 19.3614C108.851 19.3614 109.676 19.011 110.341 18.3121C111.011 17.6132 111.351 16.7158 111.351 15.6275C111.351 14.5393 111.011 13.6419 110.341 12.943C109.676 12.2441 108.851 11.8937 107.884 11.8937C106.91 11.8937 106.092 12.2441 105.42 12.943C104.749 13.6419 104.41 14.5393 104.41 15.6275C104.41 16.7158 104.749 17.6132 105.42 18.3121Z" fill="white" stroke="white" stroke-width="0.16" stroke-miterlimit="10"/>
<path d="M114.176 20.2956V10.959H115.592L119.996 18.2203H120.047L119.996 16.4254V10.959H121.161V20.2956H119.945L115.333 12.676H115.282L115.333 14.4787V20.2956H114.176Z" fill="white" stroke="white" stroke-width="0.16" stroke-miterlimit="10"/>
<path d="M102.934 33.9306C99.3861 33.9306 96.4874 36.7144 96.4874 40.5554C96.4874 44.3651 99.3861 47.1782 102.934 47.1782C106.49 47.1782 109.389 44.3651 109.389 40.5554C109.389 36.7144 106.49 33.9306 102.934 33.9306ZM102.934 44.5696C100.988 44.5696 99.3125 42.9129 99.3125 40.5554C99.3125 38.1667 100.988 36.5392 102.934 36.5392C104.881 36.5392 106.564 38.1667 106.564 40.5554C106.564 42.9129 104.881 44.5696 102.934 44.5696ZM88.8676 33.9306C85.3117 33.9306 82.4205 36.7144 82.4205 40.5554C82.4205 44.3651 85.3117 47.1782 88.8676 47.1782C92.4216 47.1782 95.3147 44.3651 95.3147 40.5554C95.3147 36.7144 92.4216 33.9306 88.8676 33.9306ZM88.8676 44.5696C86.9187 44.5696 85.2381 42.9129 85.2381 40.5554C85.2381 38.1667 86.9187 36.5392 88.8676 36.5392C90.8146 36.5392 92.4896 38.1667 92.4896 40.5554C92.4896 42.9129 90.8146 44.5696 88.8676 44.5696ZM72.1286 35.9611V38.776H78.6493C78.4586 40.349 77.9487 41.5054 77.1669 42.3113C76.2152 43.2847 74.7327 44.3651 72.1286 44.3651C68.1157 44.3651 64.9734 41.0265 64.9734 36.8897C64.9734 32.7528 68.1157 29.4142 72.1286 29.4142C74.2984 29.4142 75.8771 30.2883 77.0423 31.4213L78.9666 29.4375C77.3369 27.8334 75.169 26.6011 72.1286 26.6011C66.6257 26.6011 62.001 31.2168 62.001 36.8897C62.001 42.5625 66.6257 47.1782 72.1286 47.1782C75.1029 47.1782 77.3369 46.1737 79.0931 44.2892C80.8928 42.434 81.4536 39.8253 81.4536 37.719C81.4536 37.0649 81.4008 36.4633 81.3064 35.9611H72.1286ZM140.576 38.1434C140.046 36.6619 138.409 33.9306 135.074 33.9306C131.769 33.9306 129.017 36.6152 129.017 40.5554C129.017 44.2659 131.741 47.1782 135.391 47.1782C138.342 47.1782 140.046 45.3229 140.746 44.2425L138.556 42.7377C137.825 43.8395 136.83 44.5696 135.391 44.5696C133.961 44.5696 132.936 43.894 132.279 42.5625L140.873 38.8967L140.576 38.1434ZM131.814 40.349C131.741 37.7949 133.738 36.4867 135.17 36.4867C136.292 36.4867 137.243 37.0649 137.561 37.8922L131.814 40.349ZM124.829 46.7752H127.654V27.3078H124.829V46.7752ZM120.202 35.4062H120.108C119.473 34.6314 118.263 33.9306 116.729 33.9306C113.512 33.9306 110.569 36.8429 110.569 40.5768C110.569 44.2892 113.512 47.1782 116.729 47.1782C118.263 47.1782 119.473 46.4715 120.108 45.6734H120.202V46.6234C120.202 49.1561 118.89 50.5169 116.773 50.5169C115.047 50.5169 113.976 49.232 113.534 48.1516L111.077 49.2086C111.786 50.9646 113.661 53.1255 116.773 53.1255C120.085 53.1255 122.88 51.1164 122.88 46.2282V34.3336H120.202V35.4062ZM116.971 44.5696C115.024 44.5696 113.394 42.8895 113.394 40.5768C113.394 38.2426 115.024 36.5392 116.971 36.5392C118.89 36.5392 120.402 38.2426 120.402 40.5768C120.402 42.8895 118.89 44.5696 116.971 44.5696ZM153.803 27.3078H147.046V46.7752H149.864V39.399H153.803C156.932 39.399 160.001 37.0649 160.001 33.3524C160.001 29.6419 156.925 27.3078 153.803 27.3078ZM153.877 36.6911H149.864V30.0157H153.877C155.98 30.0157 157.181 31.8164 157.181 33.3524C157.181 34.8592 155.98 36.6911 153.877 36.6911ZM171.294 33.8936C169.258 33.8936 167.141 34.8203 166.27 36.8741L168.771 37.9545C169.309 36.8741 170.298 36.5237 171.345 36.5237C172.806 36.5237 174.289 37.4289 174.311 39.0272V39.2316C173.801 38.9279 172.71 38.4782 171.367 38.4782C168.674 38.4782 165.93 40.0064 165.93 42.8584C165.93 45.467 168.136 47.147 170.616 47.147C172.512 47.147 173.558 46.2652 174.215 45.2392H174.311V46.7441H177.033V39.2764C177.033 35.8248 174.532 33.8936 171.294 33.8936ZM170.954 44.5618C170.032 44.5618 168.748 44.0907 168.748 42.9129C168.748 41.4061 170.349 40.8279 171.736 40.8279C172.976 40.8279 173.558 41.1102 174.311 41.482C174.09 43.2847 172.585 44.5618 170.954 44.5618ZM186.947 34.32L183.708 42.7591H183.612L180.264 34.32H177.225L182.256 46.1133L179.386 52.6758H182.33L190.082 34.32H186.947ZM161.549 46.7752H164.374V27.3078H161.549V46.7752Z" fill="white"/>
<path d="M15.7651 11.7941C15.3213 12.273 15.0645 13.0186 15.0645 13.9842V48.426C15.0645 49.3916 15.3213 50.1372 15.7651 50.6161L15.8746 50.7212L34.5964 31.429V30.9734L15.8746 11.6812L15.7651 11.7941Z" fill="url(#paint0_linear_207_2342)"/>
<path d="M40.8294 37.8628L34.5957 31.4288V30.9733L40.837 24.5393L40.9767 24.623L48.368 28.9584C50.4774 30.1887 50.4774 32.2133 48.368 33.4515L40.9767 37.7791L40.8294 37.8628Z" fill="url(#paint1_linear_207_2342)"/>
<path d="M40.977 37.7793L34.596 31.2013L15.7646 50.6162C16.4653 51.3754 17.6078 51.4669 18.907 50.7077L40.977 37.7793Z" fill="url(#paint2_linear_207_2342)"/>
<path d="M40.977 24.6231L18.907 11.6948C17.6078 10.9434 16.4653 11.0349 15.7646 11.7941L34.596 31.2012L40.977 24.6231Z" fill="url(#paint3_linear_207_2342)"/>
<defs>
<linearGradient id="paint0_linear_207_2342" x1="32.9342" y1="48.7846" x2="6.80943" y2="23.4425" gradientUnits="userSpaceOnUse">
<stop stop-color="#00A0FF"/>
<stop offset="0.0066" stop-color="#00A1FF"/>
<stop offset="0.2601" stop-color="#00BEFF"/>
<stop offset="0.5122" stop-color="#00D2FF"/>
<stop offset="0.7604" stop-color="#00DFFF"/>
<stop offset="1" stop-color="#00E3FF"/>
</linearGradient>
<linearGradient id="paint1_linear_207_2342" x1="51.1147" y1="31.1989" x2="14.5595" y2="31.1989" gradientUnits="userSpaceOnUse">
<stop stop-color="#FFE000"/>
<stop offset="0.4087" stop-color="#FFBD00"/>
<stop offset="0.7754" stop-color="#FFA500"/>
<stop offset="1" stop-color="#FF9C00"/>
</linearGradient>
<linearGradient id="paint2_linear_207_2342" x1="37.5072" y1="27.6254" x2="2.07997" y2="-6.74064" gradientUnits="userSpaceOnUse">
<stop stop-color="#FF3A44"/>
<stop offset="1" stop-color="#C31162"/>
</linearGradient>
<linearGradient id="paint3_linear_207_2342" x1="11.0244" y1="62.0747" x2="26.8443" y2="46.7288" gradientUnits="userSpaceOnUse">
<stop stop-color="#32A071"/>
<stop offset="0.0685" stop-color="#2DA771"/>
<stop offset="0.4762" stop-color="#15CF74"/>
<stop offset="0.8009" stop-color="#06E775"/>
<stop offset="1" stop-color="#00F076"/>
</linearGradient>
</defs>
</svg>
